{"title":"The American 2010 R5 LiNE XviD-ViSiON","uid":5915940,"size":1596459449,"categoryP":"video","categoryS":"movies","magnet":"?xt=urn:btih:9d4768fe32b7efa9f9838cfe7da878e1318c758b&amp;dn=The+American+2010+R5+LiNE+XviD-ViSiON&amp;tr=udp%3A%2F%2Ftracker.openbittorrent.com%3A80&amp;tr=udp%3A%2F%2Fopen.demonii.com%3A1337&amp;tr=udp%3A%2F%2Ftracker.coppersurfer.tk%3A6969&amp;tr=udp%3A%2F%2Fexodus.desync.com%3A6969","seeders":0,"leechers":0,"uploader":"IwannaFan2","files":3,"time":1288225203,"description":"Filename:\nThe American 2010 R5 LiNE XviD-ViSiON\n &lt;a href=&quot;\nhttp://www.imdb.com/title/tt1440728/&quot; rel=&quot;nofollow&quot; target=&quot;_NEW&quot;&gt;\nhttp://www.imdb.com/title/tt1440728/&lt;/a&gt;\n\nVideo\nID                               : 0\nFormat                           : MPEG-4 Visual\nFormat profile                   : AdvancedSimple@L5\nFormat settings, BVOP            : Yes\nFormat settings, QPel            : No\nFormat settings, GMC             : No warppoints\nFormat settings, Matrix          : Default (H.263)\nMuxing mode                      : Packed bitstream\nCodec ID                         : XVID\nCodec ID/Hint                    : XviD\nDuration                         : 1h 40mn\nBit rate                         : 1 901 Kbps\nWidth                            : 720 pixels\nHeight                           : 400 pixels\nDisplay aspect ratio             : 16:9\nFrame rate                       : 50.000 fps\nResolution                       : 24 bits\nColorimetry                      : 4:2:0\nScan type                        : Progressive\nBits/(Pixel*Frame)               : 0.132\nStream size                      : 1.34 GiB (91%)\nWriting library                  : XviD 1.2.1 (UTC 2008-12-04)\n\nAudio\nID                               : 1\nFormat                           : MPEG Audio\nFormat version                   : Version 1\nFormat profile                   : Layer 3\nFormat_Settings_Mode             : Joint stereo\nCodec ID                         : 55\nCodec ID/Hint                    : MP3\nDuration                         : 1h 40mn\nBit rate mode                    : Constant\nBit rate                         : 192 Kbps\nChannel(s)                       : 2 channels\nSampling rate                    : 48.0 KHz\nResolution                       : 16 bits\nStream size                      : 138 MiB (9%)\nAlignment                        : Aligned on interleaves\nInterleave, duration             : 416 ms (20.81 video frames)\nInterleave, preload duration     : 216 ms\nTitle                            : American_Rx\nWriting library                  : LAME3.92 (alpha)\n\n","torrent":{"xt":"urn:btih:9d4768fe32b7efa9f9838cfe7da878e1318c758b","amp;dn":"The+American+2010+R5+LiNE+XviD-ViSiON","amp;tr":["udp%3A%2F%2Ftracker.openbittorrent.com%3A80","udp%3A%2F%2Fopen.demonii.com%3A1337","udp%3A%2F%2Ftracker.coppersurfer.tk%3A6969","udp%3A%2F%2Fexodus.desync.com%3A6969"],"infoHash":"9d4768fe32b7efa9f9838cfe7da878e1318c758b","infoHashBuffer":{"type":"Buffer","data":[157,71,104,254,50,183,239,169,249,131,140,254,125,168,120,225,49,140,117,139]},"announce":[],"urlList":[]}}